<?xml version="1.0" encoding="UTF-8"?>
<svg version="1.1" xmlns="http://www.w3.org/2000/svg" width="285" height="285">
<path d="M0 0 C2.28400301 1.27128806 2.28400301 1.27128806 5.44921875 2.47265625 C9.43674451 4.15436116 12.73884821 6.50204475 16.1953125 9.078125 C17.3730369 9.94230781 18.5514164 10.80559861 19.73046875 11.66796875 C20.5805249 12.29191528 20.5805249 12.29191528 21.44775391 12.9284668 C23.96209447 14.73717455 26.54805964 16.43476228 29.1328125 18.140625 C32.85350725 20.8381287 35.65606698 23.7946931 38.5078125 27.359375 C40.16199206 29.27288133 40.16199206 29.27288133 42.5625 31.03515625 C54.02036261 40.42085222 64.42724044 58.19676658 69.1328125 72.140625 C69.68651785 73.58781731 70.2456802 75.03292697 70.80859375 76.4765625 C71.4380429 78.11437479 72.06694271 79.7523983 72.6953125 81.390625 C72.98889648 82.14069824 73.28248047 82.89077148 73.58496094 83.66357422 C78.62704122 97.11197027 79.64272839 109.84505339 79.57885742 124.06176758 C79.57035603 126.9383941 79.59919629 129.81302167 79.63085938 132.68945312 C79.69599778 149.73183715 76.31410703 164.4721834 69.91064453 180.22509766 C69.144599 182.11159899 68.40202721 184.00623076 67.66015625 185.90234375 C64.98650716 192.49734485 62.0354941 198.26741286 57.74609375 203.95703125 C56.04021429 206.17591593 56.04021429 206.17591593 54.55078125 208.91796875 C54.08285156 209.65144531 53.61492187 210.38492188 53.1328125 211.140625 C52.4728125 211.140625 51.8128125 211.140625 51.1328125 211.140625 C50.87757813 211.87539062 50.62234375 212.61015625 50.359375 213.3671875 C47.31348825 220.25438366 40.92332196 225.58688115 35.234375 230.35766602 C33.29575562 232.00238457 31.41533652 233.6958824 29.53125 235.40234375 C24.88274983 239.47220138 19.89797381 242.91252506 14.7578125 246.328125 C13.87609375 246.93076172 12.994375 247.53339844 12.0859375 248.15429688 C6.31227277 252.01046151 0.65311015 254.79397315 -5.8671875 257.140625 C-7.41502169 257.74363742 -8.96191534 258.34907021 -10.5078125 258.95703125 C-12.04373538 259.54047404 -13.58019283 260.12251156 -15.1171875 260.703125 C-15.86097656 260.99380859 -16.60476562 261.28449219 -17.37109375 261.58398438 C-30.82264079 266.63679238 -43.56585235 267.65056679 -57.78833008 267.58666992 C-60.6649566 267.57816853 -63.53958417 267.60700879 -66.41601562 267.63867188 C-84.32738055 267.70722854 -99.30268621 263.77344437 -115.8671875 257.140625 C-117.3521875 256.62628906 -117.3521875 256.62628906 -118.8671875 256.1015625 C-132.34547455 251.1969636 -144.30944468 241.66511673 -154.8671875 232.140625 C-155.90746763 231.23798289 -156.94902676 230.33681151 -157.9921875 229.4375 C-164.65426767 223.53576594 -169.88063621 217.55941128 -174.8671875 210.140625 C-175.79502003 208.83888981 -176.72623539 207.53956159 -177.66015625 206.2421875 C-182.76201334 199.09924993 -187.02122146 192.49046368 -189.8671875 184.140625 C-190.59765684 182.38186412 -191.32867521 180.6233135 -192.06835938 178.8684082 C-205.59194408 146.44404327 -204.56490191 106.60837724 -191.8671875 74.140625 C-190.6409145 71.36761298 -189.35740659 68.70435311 -187.90234375 66.046875 C-186.71020774 63.94719034 -186.71020774 63.94719034 -185.5546875 60.765625 C-182.06267919 53.26427381 -177.07072869 46.54498339 -171.8671875 40.140625 C-171.25359375 39.33882812 -170.64 38.53703125 -170.0078125 37.7109375 C-166.27494504 32.88288992 -162.50474995 28.68911422 -157.8046875 24.796875 C-155.83827175 23.1159067 -154.08478307 21.32858284 -152.3046875 19.453125 C-149.71370036 16.82138075 -147.17892335 15.01200612 -143.875 13.30078125 C-141.24885341 11.78333857 -138.91072711 9.96968768 -136.4921875 8.140625 C-132.60239755 5.28249788 -128.96475903 2.99787651 -124.49609375 1.19921875 C-122.36919055 0.34276887 -120.29238783 -0.56151688 -118.20703125 -1.51171875 C-82.74727729 -17.61217763 -34.80790409 -19.38322502 0 0 Z " fill="#040000" transform="translate(200.8671875,12.859375)"/>
<path d="M0 0 C0.76978683 0.00141495 1.53957367 0.0028299 2.33268738 0.00428772 C4.77782163 0.00986019 7.22286243 0.02240754 9.66796875 0.03515625 C11.33137888 0.04017481 12.99479045 0.0447371 14.65820312 0.04882812 C18.72399403 0.05982059 22.78971558 0.07706615 26.85546875 0.09765625 C24.65919416 2.29393084 23.17902093 2.84877556 20.29296875 3.91015625 C1.11118766 11.45077034 -9.11155665 24.69329073 -17.39453125 43.09765625 C-19.46881242 48.06840777 -20.8935223 52.64925681 -21.65234375 57.96875 C-22.03869676 60.42485127 -22.50956304 62.77874016 -23.07421875 65.1953125 C-26.44200962 79.69660546 -27.96536484 94.2272595 -28.30859375 109.109375 C-28.73839073 127.32799139 -31.74371768 143.83103219 -44.14453125 158.09765625 C-60.06969087 171.92740013 -80.55772484 176.04951934 -101.14453125 175.09765625 C-105.18149273 174.58972346 -109.15930111 173.91513936 -113.14453125 173.09765625 C-113.75329596 171.03650872 -114.35621475 168.97363466 -114.95703125 166.91015625 C-115.29347656 165.76160156 -115.62992188 164.61304688 -115.9765625 163.4296875 C-116.37063967 161.98696729 -116.75930044 160.54276373 -117.14453125 159.09765625 C-117.40693604 158.14093018 -117.66934082 157.1842041 -117.93969727 156.19848633 C-120.01274584 148.0829968 -120.58458733 140.51680347 -120.45703125 132.16015625 C-120.44430176 130.92523438 -120.43157227 129.6903125 -120.41845703 128.41796875 C-120.10809152 109.02653679 -116.0268844 90.4650688 -107.14453125 73.09765625 C-106.71011719 72.205625 -106.27570313 71.31359375 -105.828125 70.39453125 C-101.3454179 61.24178003 -101.3454179 61.24178003 -99.14453125 58.09765625 C-98.48453125 58.09765625 -97.82453125 58.09765625 -97.14453125 58.09765625 C-97.04011719 57.52144531 -96.93570313 56.94523437 -96.828125 56.3515625 C-91.57919132 39.04507832 -68.89869623 24.89728696 -54.14453125 16.09765625 C-53.45560791 15.68531738 -52.76668457 15.27297852 -52.05688477 14.84814453 C-46.66257964 11.72702287 -41.23061598 9.45963224 -35.33203125 7.47265625 C-34.02480103 7.0238208 -34.02480103 7.0238208 -32.69116211 6.56591797 C-26.25575006 4.38994539 -19.7962406 2.49915093 -13.14453125 1.09765625 C-12.08443848 0.83746704 -12.08443848 0.83746704 -11.00292969 0.57202148 C-7.32680911 -0.03804875 -3.71371736 -0.02590995 0 0 Z " fill="#B30000" transform="translate(129.14453125,9.90234375)"/>
<path d="M0 0 C30.76967388 2.48392927 58.21741646 22.39294066 78 45 C81.30515028 49.14335025 84.14749667 53.53597932 87 58 C87.82718799 59.10844531 88.65674179 60.21512786 89.48828125 61.3203125 C92.30009038 65.23265078 94.17289518 69.36991995 96 73.8125 C96.51264404 75.05157104 96.51264404 75.05157104 97.03564453 76.31567383 C107.40338404 102.03931255 110.32303431 129.88982328 104 157 C103.85014648 157.66644531 103.70029297 158.33289063 103.54589844 159.01953125 C101.87190716 166.34102177 99.83626211 173.16514954 96.1484375 179.75390625 C94.89946996 182.04348488 94.89946996 182.04348488 94.09765625 184.85546875 C92.82800471 188.49272671 91.08809411 191.47585533 89.0625 194.75 C88.54139648 195.61431641 88.54139648 195.61431641 88.00976562 196.49609375 C86.1946781 199.42894703 84.91732328 201.05511781 82 203 C82.01571045 202.23856689 82.0314209 201.47713379 82.04760742 200.69262695 C82.11008453 197.2326606 82.14903172 193.7728131 82.1875 190.3125 C82.21263672 189.11431641 82.23777344 187.91613281 82.26367188 186.68164062 C82.27333984 185.52470703 82.28300781 184.36777344 82.29296875 183.17578125 C82.3086792 182.11270752 82.32438965 181.04963379 82.34057617 179.9543457 C81.94987641 176.56520034 80.90486821 174.79530439 79 172 C78.38318575 170.80855485 77.78252424 169.60851926 77.203125 168.3984375 C63.22382912 139.57440966 42.33193163 121.32143784 15 105 C13.33286579 104.00077965 11.66621483 103.00075268 10 102 C9.06800781 101.44441406 8.13601562 100.88882813 7.17578125 100.31640625 C-5.81792316 92.35709754 -15.80427168 81.22980041 -19.60449219 66.08984375 C-23.44593939 45.79182642 -17.00518099 28.24833101 -7 11 C-4.41320593 6.54708238 -4.41320593 6.54708238 -2 2 C-1.34 2 -0.68 2 0 2 C0 1.34 0 0.68 0 0 Z " fill="#B30000" transform="translate(164,12)"/>
<path d="M0 0 C1.78799486 1.39494427 3.55957733 2.81123064 5.3125 4.25 C6.50359375 5.19552734 6.50359375 5.19552734 7.71875 6.16015625 C14.49495253 11.81085939 22.1325373 19.15445417 23.3125 28.25 C23.9725 28.25 24.6325 28.25 25.3125 28.25 C26.13315069 30.12144695 26.9436584 31.99734336 27.75 33.875 C28.20246094 34.91914063 28.65492188 35.96328125 29.12109375 37.0390625 C31.33356451 43.00185255 31.33356451 43.00185255 31.3125 46.25 C29.4674481 48.81361803 27.83031177 50.6793917 25.5625 52.8125 C24.63304565 53.71343384 24.63304565 53.71343384 23.68481445 54.63256836 C10.8977041 66.61157718 -4.66295021 76.77497253 -21.4375 81.9375 C-22.39817383 82.23930176 -23.35884766 82.54110352 -24.34863281 82.85205078 C-30.68717509 84.78817569 -36.8277148 86.21866292 -43.421875 86.9609375 C-45.71670402 87.12692761 -45.71670402 87.12692761 -47.6875 88.25 C-79.05860538 93.58645211 -114.69308219 84.65494031 -140.5625 66.3125 C-145.86992977 62.24083 -150.82981834 57.84449457 -155.6875 53.25 C-156.99847656 52.05310547 -156.99847656 52.05310547 -158.3359375 50.83203125 C-169.82147355 39.95532734 -180.02816866 26.13032679 -185.6875 11.25 C-185.3575 10.59 -185.0275 9.93 -184.6875 9.25 C-184.07003906 9.84167969 -183.45257813 10.43335938 -182.81640625 11.04296875 C-177.45904841 16.04153855 -172.44636245 20.34571787 -165.6875 23.25 C-164.79933594 23.641875 -163.91117188 24.03375 -162.99609375 24.4375 C-144.30056251 31.17631476 -122.16283729 28.30860204 -103.6875 22.25 C-102.6200354 21.92467285 -102.6200354 21.92467285 -101.53100586 21.59277344 C-95.29825755 19.63929763 -89.49711461 16.96851116 -83.625 14.125 C-82.11860962 13.40074829 -82.11860962 13.40074829 -80.58178711 12.66186523 C-73.27957981 9.11364652 -66.17262415 5.30992325 -59.16015625 1.22265625 C-40.7702738 -9.22378991 -18.20599853 -12.80976074 0 0 Z " fill="#B10000" transform="translate(205.6875,181.75)"/>
<path d="M0 0 C3.54689567 2.41764897 6.32276578 4.98526881 7.828125 9.05859375 C8.34978308 13.92250431 8.52563073 18.36989567 6.640625 22.93359375 C-0.0331551 30.7580256 -0.0331551 30.7580256 -5.66015625 31.296875 C-10.20119233 31.41621066 -13.42442688 31.3983429 -17.609375 29.49609375 C-22.26610764 25.0665188 -24.3814008 21.42966129 -24.671875 15.05859375 C-24.45662617 10.00793369 -23.15436221 7.11809023 -20.171875 3.05859375 C-14.89588219 -1.73776335 -6.57541911 -2.8501367 0 0 Z " fill="#990101" transform="translate(148.171875,124.94140625)"/>
<path d="M0 0 C1.57764204 3.97927546 0.32240788 7.32591174 -0.8125 11.25 C-5.01946152 26.13383498 -5.43781219 41.60985038 -6.10449219 56.9699707 C-6.20853537 59.31499897 -6.32258825 61.65938917 -6.4375 64.00390625 C-6.46465088 64.70504044 -6.49180176 65.40617462 -6.51977539 66.1285553 C-6.75003132 70.73280699 -7.59959577 74.64535234 -9 79 C-9.33 79 -9.66 79 -10 79 C-10.02698189 77.37509046 -10.04638757 75.75005367 -10.0625 74.125 C-10.07410156 73.22007812 -10.08570312 72.31515625 -10.09765625 71.3828125 C-10 69 -10 69 -9 67 C-8.85650758 64.63921681 -8.77338377 62.27466518 -8.71875 59.91015625 C-8.70034058 59.20982773 -8.68193115 58.50949921 -8.66296387 57.78794861 C-8.60417093 55.54621837 -8.55138364 53.30441158 -8.5 51.0625 C-8.4323017 48.11572574 -8.35859942 45.16919116 -8.28125 42.22265625 C-8.25095703 40.91047119 -8.22066406 39.59828613 -8.18945312 38.24633789 C-8 35 -8 35 -7 32 C-6.69513559 28.87513984 -6.49158784 25.74971889 -6.28125 22.6171875 C-6 20 -6 20 -5 19 C-4.86628082 17.50234521 -4.76859544 16.00142407 -4.6875 14.5 C-4.21817901 9.0715205 -2.49305287 4.80057623 0 0 Z " fill="#900606" transform="translate(107,64)"/>
<path d="M0 0 C1.81757812 0.32484375 1.81757812 0.32484375 3.671875 0.65625 C21.4611732 3.67278189 39.06970163 4.45865308 56.73828125 0.3046875 C59.13931487 -0.01876781 60.71355164 0.25703509 63 1 C45.37284937 8.91423089 18.08680444 8.60223843 0 2 C0 1.34 0 0.68 0 0 Z " fill="#110000" transform="translate(109,267)"/>
<path d="M0 0 C2.77780876 2.77780876 2.82849821 5.22340161 3.5625 9.0625 C3.81128906 10.33222656 4.06007813 11.60195312 4.31640625 12.91015625 C7.3658755 30.30858041 6.83388608 47.79315412 3 65 C2.67 65 2.34 65 2 65 C1.97303635 63.20841511 1.95362083 61.41671527 1.9375 59.625 C1.92589844 58.62726563 1.91429687 57.62953125 1.90234375 56.6015625 C2 54 2 54 3 52 C3.21450669 47.47264697 3.18579003 42.94106482 3.18530273 38.40917969 C3.18745823 36.16841738 3.205524 33.92817307 3.22460938 31.6875 C3.25728751 23.24008564 2.67692477 15.31055621 1 7 C0.63857397 4.6695889 0.31864136 2.33670327 0 0 Z " fill="#840909" transform="translate(265,104)"/>
<path d="M0 0 C6.77516612 0.54119123 12.75629302 1.89018914 19.1875 4.0625 C20.55201294 4.51798218 20.55201294 4.51798218 21.9440918 4.98266602 C29.90968734 7.75407193 36.92483761 11.42195375 44 16 C40.71023192 17.09658936 39.28696233 16.79953138 36 16 C36 15.01 36 14.02 36 13 C35.34 12.9175 34.68 12.835 34 12.75 C30.83234892 11.95808723 28.25494748 10.61244907 25.37109375 9.11328125 C18.29179708 5.78939402 10.60067438 3.75400178 3 2 C-0.68606635 6.15296809 -4.02480663 10.30834891 -7 15 C-7.33 14.34 -7.66 13.68 -8 13 C-7.0390625 10.90625 -7.0390625 10.90625 -5.625 8.5 C-5.16351563 7.7059375 -4.70203125 6.911875 -4.2265625 6.09375 C-3.82179687 5.4028125 -3.41703125 4.711875 -3 4 C-2.67 3.34 -2.34 2.68 -2 2 C-1.34 2 -0.68 2 0 2 C0 1.34 0 0.68 0 0 Z " fill="#850707" transform="translate(164,12)"/>
<path d="M0 0 C2.33294775 -0.04241723 4.66702567 -0.04092937 7 0 C7.33 0.33 7.66 0.66 8 1 C9.66204487 1.20775561 11.33029491 1.36718255 13 1.5 C17.88888889 1.88888889 17.88888889 1.88888889 19 3 C21.49756804 3.1009003 23.96687642 3.13971766 26.46484375 3.1328125 C27.21335098 3.13376923 27.96185822 3.13472595 28.73304749 3.13571167 C30.31934696 3.13639346 31.90564921 3.13453922 33.49194336 3.13037109 C35.92372909 3.12503024 38.35532949 3.1303122 40.78710938 3.13671875 C42.32552124 3.13605782 43.86393299 3.13477635 45.40234375 3.1328125 C46.49771706 3.13584885 46.49771706 3.13584885 47.61521912 3.13894653 C51.4340452 3.18678883 51.4340452 3.18678883 55 2 C56.54023996 1.93049459 58.08334988 1.91547643 59.625 1.9375 C60.85089844 1.95103516 60.85089844 1.95103516 62.1015625 1.96484375 C62.72804687 1.97644531 63.35453125 1.98804688 64 2 C64 2.33 64 2.66 64 3 C41.84505104 7.21044279 21.86251435 6.90878766 0 1 C0 0.67 0 0.34 0 0 Z " fill="#7F0809" transform="translate(104,265)"/>
<path d="M0 0 C0 0.33 0 0.66 0 1 C-0.90878906 1.02578125 -1.81757813 1.0515625 -2.75390625 1.078125 C-17.84159576 1.36411409 -17.84159576 1.36411409 -31 7 C-32.66617115 7.04063832 -34.33388095 7.042721 -36 7 C-36 7.66 -36 8.32 -36 9 C-36.99 9 -37.98 9 -39 9 C-39 9.66 -39 10.32 -39 11 C-39.51949219 11.25394531 -40.03898437 11.50789062 -40.57421875 11.76953125 C-43.68557391 13.30507992 -46.7029653 14.80904912 -49.625 16.6875 C-52.41040775 18.22680428 -54.85808285 18.6346608 -58 19 C-54.3415328 16.04871074 -50.34285992 13.84096012 -46.25 11.5625 C-45.57195312 11.18029297 -44.89390625 10.79808594 -44.1953125 10.40429688 C-29.5999784 2.23257465 -16.71597858 -0.5861447 0 0 Z " fill="#840607" transform="translate(188,174)"/>
<path d="M0 0 C0.66 0 1.32 0 2 0 C2 0.99 2 1.98 2 3 C2.66 3 3.32 3 4 3 C4.103125 3.639375 4.20625 4.27875 4.3125 4.9375 C4.539375 5.618125 4.76625 6.29875 5 7 C5.99 7.33 6.98 7.66 8 8 C8 8.99 8 9.98 8 11 C8.66 11 9.32 11 10 11 C10 11.66 10 12.32 10 13 C10.66 13 11.32 13 12 13 C12 13.66 12 14.32 12 15 C12.66 15 13.32 15 14 15 C14 15.66 14 16.32 14 17 C14.66 17 15.32 17 16 17 C16 17.66 16 18.32 16 19 C16.99 19 17.98 19 19 19 C19 19.66 19 20.32 19 21 C19.5671875 21.11472656 20.134375 21.22945312 20.71875 21.34765625 C23.2461094 22.07037717 25.22541106 23.12493755 27.5 24.4375 C30.29931162 26.04326951 33.10000291 27.58295597 36 29 C36 29.66 36 30.32 36 31 C36.99 31 37.98 31 39 31 C39 31.66 39 32.32 39 33 C34.56127593 31.77935088 31.08450608 29.97007486 27.2734375 27.48046875 C25.63131309 26.41111282 23.96664022 25.37611276 22.2890625 24.36328125 C12.6305263 18.47554343 5.86151975 11.74544469 0 2 C0 1.34 0 0.68 0 0 Z " fill="#820706" transform="translate(149,88)"/>
<path d="M0 0 C0.66 0 1.32 0 2 0 C1.855625 0.66 1.71125 1.32 1.5625 2 C-0.61251789 13.6000954 -0.18685508 25.24394055 0 37 C-3.74719211 33.25280789 -4.15747822 28.22899308 -4.375 23.125 C-4.26445768 15.22122441 -1.99576416 7.59994122 0 0 Z " fill="#2E0100" transform="translate(145,43)"/>
<path d="M0 0 C0.66 0.33 1.32 0.66 2 1 C-0.69383373 3.79201446 -3.46955568 6.22316648 -6.5625 8.5625 C-11.21280246 12.08355532 -14.75345237 15.85428094 -18.40234375 20.37890625 C-20 22 -20 22 -22.12890625 23.02734375 C-24.35649258 23.90966166 -24.35649258 23.90966166 -25 27 C-25.99 27.33 -26.98 27.66 -28 28 C-26.39015432 24.17093202 -23.84686609 21.32756933 -21.0625 18.3125 C-20.58031006 17.78793213 -20.09812012 17.26336426 -19.60131836 16.72290039 C-13.66772173 10.40301942 -6.94259277 5.17070134 0 0 Z " fill="#850607" transform="translate(65,32)"/>
<path d="M0 0 C2.64396764 2.64396764 3.56774324 5.57503819 5 9 C5.33 9.33 5.66 9.66 6 10 C6.07521746 11.83060505 6.08314748 13.6640604 6.0625 15.49609375 C6.05476562 16.61177734 6.04703125 17.72746094 6.0390625 18.87695312 C6.01306368 21.24674526 5.98702216 23.61653693 5.9609375 25.98632812 C5.95320312 27.10330078 5.94546875 28.22027344 5.9375 29.37109375 C5.92589844 30.40161865 5.91429687 31.43214355 5.90234375 32.49389648 C5.82757557 34.99852399 5.82757557 34.99852399 7 37 C6.34 37 5.68 37 5 37 C4.67 37.99 4.34 38.98 4 40 C3.67 40 3.34 40 3 40 C3.01571045 39.19369141 3.0314209 38.38738281 3.04760742 37.55664062 C3.11031976 33.8711663 3.1491062 30.18580465 3.1875 26.5 C3.21263672 25.2315625 3.23777344 23.963125 3.26367188 22.65625 C3.31873839 15.60773601 2.86247171 10.43117005 0 4 C0 2.68 0 1.36 0 0 Z " fill="#710403" transform="translate(241,179)"/>
<path d="M0 0 C1.32 0.33 2.64 0.66 4 1 C-1.25856027 4.97945102 -6.78492102 6.90816904 -13 9 C-14.29072334 9.45340709 -15.58107066 9.90788564 -16.87109375 10.36328125 C-18.20544971 10.82632692 -19.54008325 11.28857353 -20.875 11.75 C-22.72738281 12.39195312 -22.72738281 12.39195312 -24.6171875 13.046875 C-27.63592898 13.8974211 -29.89748486 14.21233944 -33 14 C-32.67 13.34 -32.34 12.68 -32 12 C-30.06011525 11.48685006 -28.09570017 11.06541074 -26.125 10.6875 C-20.38112182 9.46028374 -15.47793022 7.62168894 -10.2421875 4.98828125 C-8 4 -8 4 -5 4 C-5 3.34 -5 2.68 -5 2 C-3.35 2 -1.7 2 0 2 C0 1.34 0 0.68 0 0 Z " fill="#8E0908" transform="translate(201,253)"/>
<path d="M0 0 C1.6360622 0.0100541 3.27213042 0.01917564 4.90820312 0.02734375 C8.87645316 0.04915508 12.84440851 0.08354947 16.8125 0.125 C14.2470406 2.6904594 12.33563332 2.66546087 8.8125 3.125 C8.8125 2.465 8.8125 1.805 8.8125 1.125 C4.85387069 1.26342295 0.89568673 1.41199006 -3.0625 1.5625 C-4.19042969 1.60181641 -5.31835938 1.64113281 -6.48046875 1.68164062 C-7.55683594 1.72353516 -8.63320312 1.76542969 -9.7421875 1.80859375 C-11.23468018 1.86358032 -11.23468018 1.86358032 -12.75732422 1.91967773 C-15.19529501 1.97459532 -15.19529501 1.97459532 -17.1875 3.125 C-19.22805005 3.19565617 -21.27084257 3.20921976 -23.3125 3.1875 C-24.40820312 3.17847656 -25.50390625 3.16945313 -26.6328125 3.16015625 C-27.89738281 3.14275391 -27.89738281 3.14275391 -29.1875 3.125 C-29.1875 2.795 -29.1875 2.465 -29.1875 2.125 C-19.4660027 -0.25802283 -9.92915006 -0.10688432 0 0 Z " fill="#870808" transform="translate(139.1875,9.875)"/>
<path d="M0 0 C0.33 0 0.66 0 1 0 C1.15376754 7.94465609 0.92098068 15.8738081 0.625 23.8125 C0.59414307 24.80258057 0.56328613 25.79266113 0.53149414 26.81274414 C0.31268041 32.20575194 -0.24611176 36.88805744 -2 42 C-2.33 42 -2.66 42 -3 42 C-3.02698189 40.37509046 -3.04638757 38.75005367 -3.0625 37.125 C-3.07410156 36.22007812 -3.08570312 35.31515625 -3.09765625 34.3828125 C-3 32 -3 32 -2 30 C-1.77588512 27.75148507 -1.60697706 25.49736931 -1.46484375 23.2421875 C-1.40037804 22.24761032 -1.40037804 22.24761032 -1.33460999 21.23294067 C-1.19819167 19.11386277 -1.06777719 16.99446345 -0.9375 14.875 C-0.8460981 13.43877689 -0.75430607 12.00257856 -0.66210938 10.56640625 C-0.43687752 7.0445471 -0.21702886 3.52237524 0 0 Z " fill="#7A090A" transform="translate(100,101)"/>
<path d="M0 0 C1.55420014 3.93794268 0.36285892 6.38207355 -1.1875 10.1875 C-1.65414063 11.33734375 -2.12078125 12.4871875 -2.6015625 13.671875 C-3.06304687 14.77015625 -3.52453125 15.8684375 -4 17 C-4.35835938 17.87140625 -4.71671875 18.7428125 -5.0859375 19.640625 C-6.99057728 24.12033777 -9.16064189 28.04517978 -12 32 C-12.33 31.01 -12.66 30.02 -13 29 C-12.00795408 27.66073801 -11.00573778 26.32901064 -10 25 C-9.25102904 23.11129062 -8.50736937 21.21957854 -7.828125 19.3046875 C-6.88386902 16.6768053 -5.85459472 14.09055942 -4.8125 11.5 C-4.29623047 10.21609375 -4.29623047 10.21609375 -3.76953125 8.90625 C-3.51558594 8.2771875 -3.26164062 7.648125 -3 7 C-2.34 7 -1.68 7 -1 7 C-1.020625 6.030625 -1.04125 5.06125 -1.0625 4.0625 C-1 1 -1 1 0 0 Z " fill="#8F0809" transform="translate(264,176)"/>
<path d="M0 0 C0.99 0.33 1.98 0.66 3 1 C-1.41738886 4.33997694 -4.36427203 5.44747765 -10 6 C-10.33 6.33 -10.66 6.66 -11 7 C-12.51928038 7.07179964 -14.04167482 7.08392007 -15.5625 7.0625 C-16.38878906 7.05347656 -17.21507813 7.04445312 -18.06640625 7.03515625 C-18.70449219 7.02355469 -19.34257813 7.01195312 -20 7 C-16.44889104 5.01030829 -12.78884689 4.01196945 -8.875 2.9375 C-4.32752281 1.75759663 -4.32752281 1.75759663 0 0 Z " fill="#8A0707" transform="translate(106,202)"/>
<path d="M0 0 C-7.52341971 3.68494027 -14.83340455 3.28710687 -23 3 C-23 2.67 -23 2.34 -23 2 C-21.72125 1.87625 -20.4425 1.7525 -19.125 1.625 C-14.75298941 1.15533693 -10.5396344 0.31044545 -6.26171875 -0.6953125 C-3.86068513 -1.01876781 -2.28644836 -0.74296491 0 0 Z " fill="#380202" transform="translate(172,268)"/>
<path d="M0 0 C1.32 0.33 2.64 0.66 4 1 C-0.50041198 4.26279868 -4.68440996 6.31672982 -10 8 C-10.66 7.67 -11.32 7.34 -12 7 C-8.375 4 -8.375 4 -5 4 C-5 3.34 -5 2.68 -5 2 C-3.35 2 -1.7 2 0 2 C0 1.34 0 0.68 0 0 Z " fill="#790606" transform="translate(201,253)"/>
<path d="M0 0 C0.33 0 0.66 0 1 0 C1.03758423 0.98395752 1.03758423 0.98395752 1.07592773 1.98779297 C1.1917326 4.95040183 1.31452886 7.91268031 1.4375 10.875 C1.47681641 11.90753906 1.51613281 12.94007813 1.55664062 14.00390625 C1.59853516 14.99003906 1.64042969 15.97617188 1.68359375 16.9921875 C1.72025146 17.90339355 1.75690918 18.81459961 1.79467773 19.75341797 C1.86577065 22.03483481 1.86577065 22.03483481 3 24 C2.34 24 1.68 24 1 24 C0.67 24.99 0.34 25.98 0 27 C-0.33 27 -0.66 27 -1 27 C-0.67 18.09 -0.34 9.18 0 0 Z " fill="#410404" transform="translate(245,192)"/>
<path d="M0 0 C0.33 0 0.66 0 1 0 C1 3.3 1 6.6 1 10 C1.99 10 2.98 10 4 10 C2.75023244 13.65316671 2.32901247 14.78065836 -1 17 C-0.67 11.39 -0.34 5.78 0 0 Z " fill="#9C0808" transform="translate(247,198)"/>
<path d="M0 0 C1.65 0 3.3 0 5 0 C0.70095985 3.73829578 -5.24928075 7 -11 7 C-11 6.34 -11 5.68 -11 5 C-7.535 4.505 -7.535 4.505 -4 4 C-4 3.34 -4 2.68 -4 2 C-2.68 2 -1.36 2 0 2 C0 1.34 0 0.68 0 0 Z " fill="#2D0000" transform="translate(119,195)"/>
<path d="M0 0 C6.6 0.99 13.2 1.98 20 3 C20 3.33 20 3.66 20 4 C17.79194476 4.0544452 15.58349446 4.09299283 13.375 4.125 C12.14523438 4.14820313 10.91546875 4.17140625 9.6484375 4.1953125 C6.05683959 4.0030428 3.33338825 3.30258556 0 2 C0 1.34 0 0.68 0 0 Z " fill="#260000" transform="translate(109,267)"/>
<path d="M0 0 C2 0 2 0 3.625 1.3125 C5 3 5 3 5 6 C5.66 6 6.32 6 7 6 C8.5625 8.8125 8.5625 8.8125 10 12 C9.67 12.99 9.34 13.98 9 15 C9 14.34 9 13.68 9 13 C8.34 13 7.68 13 7 13 C6.74605469 12.48050781 6.49210938 11.96101562 6.23046875 11.42578125 C4.29956111 7.51334292 2.31511537 3.7041846 0 0 Z " fill="#290000" transform="translate(222,197)"/>
<path d="M0 0 C1.16161779 2.86578759 0.9946154 4.01630163 0.00390625 7.015625 C-0.70958984 8.61664063 -0.70958984 8.61664063 -1.4375 10.25 C-1.91058594 11.32765625 -2.38367188 12.4053125 -2.87109375 13.515625 C-3.24363281 14.33546875 -3.61617187 15.1553125 -4 16 C-5.41131097 12.23948152 -4.5449072 9.97977756 -3.125 6.3125 C-2.75632812 5.33925781 -2.38765625 4.36601563 -2.0078125 3.36328125 C-1 1 -1 1 0 0 Z " fill="#8C0908" transform="translate(20,88)"/>
<path d="M0 0 C1.3805087 3.76668598 0.59568159 6.44789173 -0.4375 10.25 C-0.72496094 11.32765625 -1.01242188 12.4053125 -1.30859375 13.515625 C-1.53675781 14.33546875 -1.76492187 15.1553125 -2 16 C-2.66 16 -3.32 16 -4 16 C-4.5326514 9.741346 -2.81849506 5.54891215 0 0 Z " fill="#7A0505" transform="translate(107,64)"/>
<path d="M0 0 C0.66 0 1.32 0 2 0 C1.46515599 5.34844008 -0.46690767 9.35796103 -3 14 C-3.33 14 -3.66 14 -4 14 C-4.1875 11.1875 -4.1875 11.1875 -4 8 C-2.5625 6.4375 -2.5625 6.4375 -1 5 C-0.27802838 2.39388923 -0.27802838 2.39388923 0 0 Z " fill="#2C0000" transform="translate(21,80)"/>
<path d="M0 0 C-2.35968744 2.09749995 -3.54616994 2.96905704 -6.75 3.1875 C-7.86375 3.0946875 -7.86375 3.0946875 -9 3 C-9 3.66 -9 4.32 -9 5 C-10.32 4.67 -11.64 4.34 -13 4 C-11.59248779 3.13083113 -10.1735479 2.28014851 -8.75 1.4375 C-7.96109375 0.96183594 -7.1721875 0.48617188 -6.359375 -0.00390625 C-3.69155375 -1.13022151 -2.65498232 -1.0169313 0 0 Z " fill="#840807" transform="translate(88,22)"/>
<path d="M0 0 C10.55808656 3.07517084 10.55808656 3.07517084 15 5 C15 5.33 15 5.66 15 6 C9.50420782 6.54957922 5.53539004 4.96586366 1 2 C0.67 1.34 0.34 0.68 0 0 Z " fill="#8F0809" transform="translate(34,203)"/>
<path d="M0 0 C2.64836661 3.12988781 4.0048268 6.0193072 5 10 C4.546875 12.1875 4.546875 12.1875 4 14 C3.32471777 12.42032193 2.66010306 10.83608097 2 9.25 C1.62875 8.36828125 1.2575 7.4865625 0.875 6.578125 C0 4 0 4 0 0 Z " fill="#8E0908" transform="translate(260,90)"/>
<path d="M0 0 C1.98 1.65 3.96 3.3 6 5 C5.01 5.495 5.01 5.495 4 6 C4.33 7.32 4.66 8.64 5 10 C3 9 3 9 2.1484375 6.93359375 C1.89320312 6.10988281 1.63796875 5.28617188 1.375 4.4375 C1.11460938 3.61121094 0.85421875 2.78492188 0.5859375 1.93359375 C0.39257812 1.29550781 0.19921875 0.65742188 0 0 Z " fill="#780C0A" transform="translate(20,191)"/>
<path d="M0 0 C1.40907283 2.81814566 0.50872691 4.17277204 -0.4375 7.125 C-0.72496094 8.03507812 -1.01242187 8.94515625 -1.30859375 9.8828125 C-1.53675781 10.58148438 -1.76492188 11.28015625 -2 12 C-2.33 12 -2.66 12 -3 12 C-3.36923077 4.61538462 -3.36923077 4.61538462 -1.5 1.5 C-1.005 1.005 -0.51 0.51 0 0 Z " fill="#290101" transform="translate(14,102)"/>
<path d="M0 0 C-1.61992165 0.86375896 -3.24611861 1.71575854 -4.875 2.5625 C-6.23238281 3.27599609 -6.23238281 3.27599609 -7.6171875 4.00390625 C-8.40351563 4.33261719 -9.18984375 4.66132813 -10 5 C-10.66 4.67 -11.32 4.34 -12 4 C-8.51556551 -0.03460835 -5.13031263 -1.52493369 0 0 Z " fill="#870809" transform="translate(148,14)"/>
<path d="M0 0 C1.32 0 2.64 0 4 0 C4 0.66 4 1.32 4 2 C5.175625 2.185625 5.175625 2.185625 6.375 2.375 C9 3 9 3 11 5 C6.12637153 4.54663921 3.60957611 3.2910841 0 0 Z " fill="#7F0806" transform="translate(75,253)"/>
<path d="M0 0 C2.69504819 2.69504819 5 6.08360477 5 10 C2 9 2 9 0.8125 6.6875 C0 4 0 4 0 0 Z " fill="#280000" transform="translate(21,195)"/>
<path d="M0 0 C0.66 0.66 1.32 1.32 2 2 C1.8125 4.5 1.8125 4.5 1 7 C0.01 7.66 -0.98 8.32 -2 9 C-1.34 6.03 -0.68 3.06 0 0 Z " fill="#94090A" transform="translate(235,222)"/>
<path d="M0 0 C2.64 0 5.28 0 8 0 C5.4345406 2.5654594 3.52313332 2.54046087 0 3 C0 2.01 0 1.02 0 0 Z " fill="#800B0A" transform="translate(148,10)"/>
</svg>
